<svg xmlns="http://www.w3.org/2000/svg" width="3000" height="3000" fill="none" viewBox="0 0 3000 3000" id="employee-works-on-deadlines">
  <path fill="#FFC5A6" d="M627.126 1379.83L609.841 1507.09C609.841 1507.09 804.841 1600.78 814.274 1559.24C818.786 1539.03 823.239 1511.49 826.638 1488.22C830.388 1462.62 832.79 1442.17 832.79 1442.17C832.79 1442.17 905.739 1472.23 944.821 1441C1015.13 1384.75 1020.17 1193.97 1015.72 1055.57L708.923 1056.86L582.185 1168.48L627.126 1379.83Z"></path>
  <path fill="#203752" d="M614.233 1409C620.034 1411.41 626.538 1408.36 631.929 1405.14C684.839 1373.5 721.46 1316.07 727.847 1254.73C714.37 1253.32 702.3 1244.53 694.741 1232.87C687.183 1221.27 684.019 1207.03 684.897 1193.2C685.308 1186.35 686.772 1179.43 690.229 1173.52C699.956 1156.82 724.038 1152.71 741.558 1160.98C759.077 1169.24 770.561 1186.64 777.476 1204.69C784.39 1222.73 787.495 1242.01 793.53 1260.41C805.483 1220.74 820.073 1183.3 850.542 1160.1C903.276 1120.02 959.409 1163.96 1016.83 1147.79C1136.6 1113.98 1167.12 1019.53 1164.84 968.262C968.96 1023.52 951.968 888.281 782.515 882.539C739.272 881.074 695.561 901.406 668.022 938.613C626.304 924.316 576.206 939.609 549.487 974.765C539.351 988.125 532.495 1003.77 527.104 1019.65C505.19 1084.16 506.011 1156.11 529.39 1220.04C538.413 1244.65 550.542 1267.97 562.671 1291.17C572.456 1309.98 582.3 1328.79 592.085 1347.6C602.515 1367.81 613.237 1388.79 614.233 1409Z"></path>
  <path fill="#FF9F6B" d="M736.932 1393.83C750.936 1416.22 765.701 1438.42 784.275 1457.23C796.697 1469.65 810.936 1480.61 826.697 1488.23C830.447 1462.62 832.85 1442.17 832.85 1442.17C797.752 1431.51 766.346 1415.57 736.932 1393.83Z"></path>
  <path fill="#FFC5A6" d="M1671.44 2273.44C1756.17 2269.04 1842.07 2291.07 1914.2 2335.78C1927.85 2344.22 1941.97 2354.77 1946.07 2370.29C1947.13 2374.34 1947.36 2379.02 1944.9 2382.42C1942.21 2386.06 1937.28 2387.11 1932.83 2387.81C1894.28 2393.73 1855.14 2394.61 1816.11 2395.49C1785.41 2396.19 1754.76 2396.84 1724.06 2397.54C1714.75 2397.77 1704.96 2397.83 1696.64 2393.61C1678.65 2384.41 1675.84 2360.27 1675.37 2340.06C1674.9 2318.32 1674.37 2296.64 1671.44 2273.44Z"></path>
  <path fill="#31DECD" d="M1707.42 2390.56C1541.31 2408.73 1373.55 2397.89 1206.5 2403.22C1141.17 2405.27 1075.95 2409.84 1010.97 2416.87C947.224 2423.73 883.65 2432.99 819.665 2437.32C751.345 2441.95 682.849 2441.07 614.353 2440.13C511.696 2438.73 409.099 2437.32 306.443 2435.97C278.259 2312.52 258.22 2191.52 248.845 2069.65C243.103 1995.11 241.462 1919.65 254.646 1846.11C267.829 1772.52 296.775 1700.5 346.404 1644.61C420.642 1561.05 535.72 1521.15 646.755 1524.9C711.032 1528.3 775.661 1531.75 839.646 1524.55C861.911 1522.03 884.177 1518.22 906.56 1518.81C981.736 1520.62 1048.94 1572.3 1087.79 1636.75C1126.64 1701.15 1141.52 1776.97 1151.66 1851.5C1163.08 1935.29 1171.58 2025.17 1224.96 2090.8C1280.27 2158.77 1371.27 2184.84 1457.34 2201.31C1534.86 2216.07 1613.26 2226.09 1692.83 2230.66C1709.76 2283.34 1714.63 2340 1707.42 2390.56Z"></path>
  <path fill="#FFC5A6" d="M1295.68 2282.58C1346.89 2272.21 1398.81 2262.6 1450.95 2265.24C1503.1 2267.87 1556.19 2283.87 1594.8 2319.09C1608.57 2331.68 1620.7 2347.33 1623.86 2365.73C1624.45 2369.3 1624.74 2373.11 1623.69 2376.57C1620.11 2388.46 1604.82 2391.21 1592.4 2391.74C1536.03 2394.26 1479.61 2395.9 1423.24 2392.97C1397.34 2391.62 1371.21 2389.28 1346.48 2381.55C1326.79 2375.34 1306.81 2364.38 1298.32 2345.57C1290.11 2327.29 1294.45 2306.08 1295.68 2282.58Z"></path>
  <path fill="#1B81A6" d="M747.712 1598.38L798.513 1672.21L765.993 2078.55L870.349 2270.68L912.243 2214.08L846.735 1668.22L866.071 1598.67L839.763 1533.57L772.79 1530.76L747.712 1598.38Z"></path>
  <path fill="#31DECD" d="M524.88 1679.41C524.88 1679.41 719.411 1909.16 815.446 2060.91 913.473 2215.84 961.462 2230.72 1331.42 2243.26 1354.51 2296.87 1349.88 2357.81 1342.85 2419.62 1250.45 2428.71 1158.1 2437.73 1065.7 2446.81 970.251 2456.19 869.821 2464.8 782.165 2425.84 741.266 2407.67 705.407 2379.96 671.305 2350.95 587.985 2280.05 512.692 2199.72 447.302 2111.95 429.958 2088.63 413.024 2064.37 404.294 2036.66 393.864 2003.67 395.739 1968.1 400.954 1933.88 415.368 1839.78 454.86 1749.55 524.88 1679.41ZM834.314 1458.17C828.162 1480.67 818.318 1502.17 802.908 1523.91 734.939 1507.56 670.955 1475.04 618.045 1429.57 597.244 1459.46 581.6 1492.91 570.877 1527.25 619.979 1590.71 686.482 1640.57 760.779 1671.33 773.025 1627.15 789.139 1584.14 808.885 1543.13 837.068 1570.72 858.631 1605 870.643 1644.85 877.557 1611.1 894.842 1553.79 889.803 1519.04 874.51 1496.37 866.482 1473.17 834.314 1458.17Z"></path>
  <path fill="#203752" d="M1335.87 2367.48L1324.45 2449.33L2508.75 2437.73L2755.37 1887.83L2111.83 1896.85L1917.59 2370.35L1335.87 2367.48Z"></path>
  <path fill="#1B81A6" d="M2361.15 2185.74C2379.49 2139.41 2374.85 2094.12 2350.78 2084.59C2326.71 2075.06 2292.32 2104.9 2273.98 2151.23C2255.64 2197.57 2260.28 2242.86 2284.35 2252.39C2308.42 2261.92 2342.8 2232.08 2361.15 2185.74Z"></path>
  <path fill="#203752" d="M567.428 1533.28C624.498 1586.08 685.67 1634.36 750.182 1677.66C753.639 1679.94 757.506 1677.31 758.736 1674.08C775.611 1630.84 794.771 1588.54 816.1 1547.29C819.557 1540.61 809.42 1534.75 805.904 1541.49C784.107 1583.62 764.654 1626.86 747.428 1671.04C750.299 1669.87 753.111 1668.63 755.982 1667.46C692.232 1624.69 631.998 1576.99 575.631 1524.9C570.123 1519.81 561.861 1528.13 567.428 1533.28Z"></path>
  <path fill="#203752" d="M811.227 1553.79C837.008 1576.34 854.937 1606.23 862.672 1639.63C863.902 1644.84 870.816 1645.19 873.453 1641.03C884.293 1623.92 887.867 1603.42 890.797 1583.67C893.961 1561.93 895.426 1540.08 895.133 1518.16C895.016 1510.6 883.297 1510.54 883.414 1518.1C883.707 1539.02 882.535 1559.94 879.488 1580.68C876.734 1599.43 873.57 1619 863.316 1635.29C866.891 1635.76 870.465 1636.23 874.098 1636.7C865.894 1601.42 846.734 1569.31 819.488 1545.47C813.805 1540.49 805.543 1548.81 811.227 1553.79Z"></path>
  <path fill="#203752" d="M851.073 1629.5C848.026 1641.22 844.979 1652.88 841.932 1664.59C841.17 1667.58 842.987 1671.1 846.092 1671.74C849.198 1672.45 852.42 1670.75 853.241 1667.58C856.287 1655.86 859.334 1644.2 862.381 1632.49C863.143 1629.5 861.327 1625.98 858.221 1625.34C855.174 1624.69 851.952 1626.33 851.073 1629.5Z"></path>
  <path fill="#203752" d="M772.56 1643.38C776.837 1650.36 781.114 1657.27 785.392 1664.24C787.501 1667.7 789.669 1671.22 791.778 1674.67C793.829 1677.95 795.587 1681.64 799.278 1683.34C802.618 1684.93 806.485 1684.11 810.06 1683.75C814.161 1683.4 818.321 1682.99 822.423 1682.64C830.86 1681.88 839.357 1681.12 847.794 1680.36C850.958 1680.06 853.653 1677.89 853.712 1674.55C853.712 1671.63 851.075 1668.4 847.911 1668.64C840.587 1669.28 833.263 1669.98 825.939 1670.63C822.306 1670.98 818.614 1671.27 814.981 1671.63C813.165 1671.8 811.349 1671.98 809.474 1672.15C807.892 1672.27 805.314 1672.04 803.907 1672.62C803.204 1672.56 803.263 1672.62 804.024 1672.91C804.728 1673.32 804.845 1673.32 804.376 1672.8C804.376 1672.27 803.321 1671.1 803.028 1670.69C802.091 1669.16 801.153 1667.58 800.157 1666.06C798.282 1662.95 796.349 1659.91 794.474 1656.8C790.548 1650.41 786.622 1644.09 782.696 1637.7C778.771 1631.14 768.575 1636.94 772.56 1643.38Z"></path>
  <path fill="#203752" d="M842.927 1680.94C853.591 1788.4 862.263 1896.33 877.615 2003.26 881.951 2033.44 886.931 2063.49 892.849 2093.44 894.314 2100.88 905.623 2097.83 904.216 2090.51 883.415 1985.51 874.275 1878.69 863.728 1772.28 860.681 1741.87 857.693 1711.46 854.646 1681.05 853.884 1673.55 842.165 1673.44 842.927 1680.94ZM393.92 2066.36C456.323 2151.85 532.319 2225.97 612.592 2294.59 653.08 2329.21 694.213 2363.61 737.104 2395.25 772.377 2421.27 811.518 2447.81 855.17 2456.77 901.869 2466.38 951.264 2460.99 998.373 2458.41 1005.87 2458 1005.99 2446.28 998.432 2446.7 955.893 2449.04 911.83 2453.55 869.408 2447.4 827.631 2441.36 790.951 2418.98 756.908 2395.13 714.018 2365.07 673.705 2330.91 633.686 2297.16 594.311 2263.94 555.815 2229.55 519.252 2193.22 477.651 2151.85 438.627 2107.91 404.057 2060.5 399.662 2054.47 389.467 2060.27 393.92 2066.36Z"></path>
  <path fill="#203752" d="M464.12 1666.47C536.307 1687.68 594.725 1737.66 641.542 1795.02C689.588 1853.85 724.979 1920.7 761.19 1987.03C795.936 2050.78 833.612 2117.93 890.155 2165.16C936.444 2203.83 998.26 2219.41 1056.62 2228.44C1145.86 2242.27 1236.97 2242.21 1327.09 2242.27C1325.21 2240.8 1323.34 2239.34 1321.46 2237.87C1333.77 2287.15 1339.22 2337.77 1337.69 2388.57C1337.46 2396.13 1349.18 2396.19 1349.41 2388.63C1350.99 2336.89 1345.37 2285.16 1332.83 2234.88C1332.19 2232.36 1329.78 2230.49 1327.21 2230.49C1245.53 2230.49 1163.26 2230.31 1082.11 2220.23C1021.99 2212.79 957.421 2199.96 907.323 2163.75C879.198 2143.42 855.936 2115.23 835.78 2087.23C813.924 2056.82 795.116 2024.3 777.01 1991.54C740.682 1925.57 706.17 1858.95 659.823 1799.3C609.901 1735.08 546.62 1678.48 467.167 1655.16C459.901 1653.05 456.854 1664.36 464.12 1666.47Z"></path>
  <path fill="#203752" d="M1010.86 1760.92C1024.39 1879.92 1034 1999.39 1039.34 2119.04C1040.86 2153.08 1042.03 2187.13 1042.85 2221.17C1043.03 2228.73 1054.75 2228.79 1054.57 2221.23C1051.52 2101.46 1044.49 1981.87 1033.18 1862.63C1029.96 1828.71 1026.44 1794.84 1022.58 1760.97C1021.7 1753.59 1009.98 1753.47 1010.86 1760.92Z"></path>
  <path fill="#31DECD" d="M2542.03 1153.12C2535.64 1300.19 2540.09 1344.61 2426.01 1361.89C2311.99 1379.23 1629.49 1381.34 1504.68 1374.08C1379.94 1366.81 1329.02 1354.62 1329.02 1260.29C1329.02 1174.68 1317.18 856.871 1315.01 723.687C1314.78 710.093 1314.66 698.433 1314.66 689.117C1314.66 588.687 1365.87 560.855 1455.58 557.457C1519.39 555.054 2182.44 548.726 2296.75 544.39C2411.13 540.054 2526.09 573.335 2531.01 656.011C2532.12 675.054 2533.65 704 2535.29 738.98C2540.68 855.64 2546.95 1039.92 2542.03 1153.12Z"></path>
  <path fill="#1B81A6" d="M2535.29 738.98C2237.22 734.82 1568.73 725.738 1315.01 723.687 1314.78 710.093 1314.66 698.433 1314.66 689.117 1314.66 588.687 1365.87 560.855 1455.58 557.457 1519.39 555.054 2182.44 548.726 2296.75 544.39 2411.13 540.054 2526.09 573.335 2531.01 656.011 2532.12 675.054 2533.65 704 2535.29 738.98ZM1593.52 1701.16C1601.13 1767.01 1589.3 1834.22 1600.2 1899.61 1601.13 1905.24 1602.72 1911.57 1607.64 1914.44 1610.51 1916.08 1614.03 1916.25 1617.37 1916.31 1702.79 1918.54 1788.22 1920.71 1873.65 1922.93 1884.55 1923.23 1897.68 1922.29 1902.95 1912.74 1905.06 1908.87 1905.35 1904.24 1905.65 1899.85 1909.4 1834.05 1913.15 1768.13 1912.38 1702.21 1912.33 1697.82 1912.21 1693.19 1910.28 1689.26 1905.59 1679.77 1892.99 1678.01 1882.44 1677.54 1801 1673.62 1719.44 1669.63 1637.99 1673.44 1627.85 1673.91 1617.37 1674.55 1608.34 1679.12 1599.26 1683.64 1592.58 1693.01 1593.52 1701.16ZM2040 1499.01C2047.62 1564.87 2035.78 1632.07 2046.68 1697.46 2047.62 1703.09 2049.2 1709.42 2054.12 1712.29 2056.99 1713.93 2060.51 1714.1 2063.85 1714.16 2149.28 1716.39 2234.7 1718.56 2320.13 1720.78 2331.03 1721.08 2344.16 1720.14 2349.43 1710.59 2351.54 1706.72 2351.83 1702.09 2352.13 1697.7 2355.88 1631.9 2359.63 1565.98 2358.87 1500.06 2358.81 1495.67 2358.69 1491.04 2356.76 1487.11 2352.07 1477.62 2339.47 1475.86 2328.92 1475.39 2247.48 1471.47 2165.92 1467.48 2084.47 1471.29 2074.33 1471.76 2063.85 1472.41 2054.82 1476.98 2045.74 1481.49 2039.06 1490.86 2040 1499.01Z"></path>
  <path fill="#31DECD" d="M1382.58 1575.65C1390.2 1641.51 1378.36 1708.71 1389.26 1774.11C1390.2 1779.73 1391.78 1786.06 1396.7 1788.93C1399.57 1790.57 1403.09 1790.75 1406.43 1790.8C1491.86 1793.03 1577.29 1795.2 1662.72 1797.43C1673.62 1797.72 1686.74 1796.78 1692.01 1787.23C1694.12 1783.36 1694.42 1778.73 1694.71 1774.34C1698.46 1708.54 1702.21 1642.62 1701.45 1576.7C1701.39 1572.31 1701.27 1567.68 1699.34 1563.75C1694.65 1554.26 1682.05 1552.5 1671.51 1552.04C1590.06 1548.11 1508.5 1544.13 1427.05 1547.93C1416.92 1548.4 1406.43 1549.05 1397.4 1553.62C1388.32 1558.07 1381.64 1567.45 1382.58 1575.65Z"></path>
  <path fill="#203752" d="M1414.63 891.205C1547.17 886.693 1679.71 883.178 1812.25 880.658 1944.85 878.139 2077.39 876.615 2209.98 876.146 2285.04 875.854 2360.1 875.912 2435.22 876.264 2442.78 876.322 2442.84 864.604 2435.28 864.545 2302.68 863.9 2170.08 864.311 2037.48 865.658 1904.89 867.006 1772.35 869.408 1639.75 872.807 1564.69 874.74 1489.69 876.967 1414.63 879.486 1407.13 879.779 1407.07 891.498 1414.63 891.205ZM1414.63 1043.55C1547.17 1039.04 1679.71 1035.52 1812.25 1033 1944.85 1030.48 2077.39 1028.96 2209.98 1028.49 2285.04 1028.2 2360.1 1028.26 2435.22 1028.61 2442.78 1028.67 2442.84 1016.95 2435.28 1016.89 2302.68 1016.24 2170.08 1016.65 2037.48 1018 1904.89 1019.35 1772.35 1021.75 1639.75 1025.15 1564.69 1027.08 1489.69 1029.31 1414.63 1031.83 1407.13 1032.12 1407.07 1043.84 1414.63 1043.55ZM1414.63 1190.03C1547.17 1185.52 1679.71 1182.01 1812.25 1179.49 1944.85 1176.97 2077.39 1175.44 2209.98 1174.97 2285.04 1174.68 2360.1 1174.74 2435.22 1175.09 2442.78 1175.15 2442.84 1163.43 2435.28 1163.37 2302.68 1162.73 2170.08 1163.14 2037.48 1164.49 1904.89 1165.83 1772.35 1168.24 1639.75 1171.63 1564.69 1173.57 1489.69 1175.79 1414.63 1178.31 1407.13 1178.61 1407.07 1190.33 1414.63 1190.03Z"></path>
  <path fill="#203752" d="M1536.91 818.962C1547.34 938.962 1554.37 1059.25 1558 1179.67 1559 1213.65 1559.76 1247.63 1560.23 1281.62 1560.35 1289.18 1572.07 1289.24 1571.95 1281.68 1570.25 1161.21 1565.15 1040.86 1556.6 920.681 1554.2 886.755 1551.5 852.888 1548.57 819.021 1547.98 811.521 1536.27 811.462 1536.91 818.962ZM1724.47 818.962C1734.9 938.962 1741.93 1059.25 1745.56 1179.67 1746.56 1213.65 1747.32 1247.63 1747.79 1281.62 1747.9 1289.18 1759.62 1289.24 1759.51 1281.68 1757.81 1161.21 1752.71 1040.86 1744.15 920.681 1741.75 886.755 1739.06 852.888 1736.13 819.021 1735.54 811.521 1723.82 811.462 1724.47 818.962ZM1914.61 818.962C1925.04 938.962 1932.07 1059.25 1935.71 1179.67 1936.7 1213.65 1937.46 1247.63 1937.93 1281.62 1938.05 1289.18 1949.77 1289.24 1949.65 1281.68 1947.95 1161.21 1942.85 1040.86 1934.3 920.681 1931.9 886.755 1929.2 852.888 1926.27 819.021 1925.69 811.521 1913.97 811.462 1914.61 818.962ZM2099.18 818.962C2109.61 938.962 2116.64 1059.25 2120.28 1179.67 2121.27 1213.65 2122.03 1247.63 2122.5 1281.62 2122.62 1289.18 2134.34 1289.24 2134.22 1281.68 2132.52 1161.21 2127.42 1040.86 2118.87 920.681 2116.47 886.755 2113.77 852.888 2110.84 819.021 2110.26 811.521 2098.54 811.462 2099.18 818.962ZM2277.89 818.962C2288.32 938.962 2295.35 1059.25 2298.99 1179.67 2299.98 1213.65 2300.74 1247.63 2301.21 1281.62 2301.33 1289.18 2313.05 1289.24 2312.93 1281.68 2311.23 1161.21 2306.13 1040.86 2297.58 920.681 2295.18 886.755 2292.48 852.888 2289.55 819.021 2288.97 811.521 2277.25 811.462 2277.89 818.962Z"></path>
</svg>
